<svg width="80" height="74" viewBox="0 0 80 74" fill="none" xmlns="http://www.w3.org/2000/svg">
<g id="&#240;&#159;&#166;&#134; icon &#34;Instagram&#34;">
<path id="Vector" d="M40.0089 18.0273C28.6581 18.0273 19.5025 26.4982 19.5025 37C19.5025 47.5018 28.6581 55.9727 40.0089 55.9727C51.3597 55.9727 60.5153 47.5018 60.5153 37C60.5153 26.4982 51.3597 18.0273 40.0089 18.0273ZM40.0089 49.3347C32.6737 49.3347 26.6771 43.8031 26.6771 37C26.6771 30.1969 32.6559 24.6653 40.0089 24.6653C47.362 24.6653 53.3408 30.1969 53.3408 37C53.3408 43.8031 47.3441 49.3347 40.0089 49.3347ZM66.1372 17.2513C66.1372 19.7116 63.9955 21.6766 61.3542 21.6766C58.6949 21.6766 56.5711 19.6951 56.5711 17.2513C56.5711 14.8074 58.7128 12.826 61.3542 12.826C63.9955 12.826 66.1372 14.8074 66.1372 17.2513ZM79.7189 21.7426C79.4155 15.8147 77.952 10.5638 73.2582 6.23753C68.5823 1.9113 62.9069 0.557291 56.4997 0.260069C49.8963 -0.0866897 30.1037 -0.0866897 23.5003 0.260069C17.111 0.540779 11.4356 1.89479 6.74177 6.22102C2.04796 10.5472 0.602342 15.7982 0.281093 21.7261C-0.0936977 27.8357 -0.0936977 46.1478 0.281093 52.2574C0.584495 58.1853 2.04796 63.4362 6.74177 67.7625C11.4356 72.0887 17.0931 73.4427 23.5003 73.7399C30.1037 74.0867 49.8963 74.0867 56.4997 73.7399C62.9069 73.4592 68.5823 72.1052 73.2582 67.7625C77.9342 63.4362 79.3977 58.1853 79.7189 52.2574C80.0937 46.1478 80.0937 27.8522 79.7189 21.7426ZM71.188 58.8128C69.7959 62.0492 67.101 64.5426 63.5851 65.847C58.3201 67.779 45.8271 67.3331 40.0089 67.3331C34.1907 67.3331 21.6799 67.7625 16.4328 65.847C12.9347 64.5591 10.2398 62.0657 8.82989 58.8128C6.74177 53.9416 7.22365 42.383 7.22365 37C7.22365 31.617 6.75962 20.0418 8.82989 15.1872C10.222 11.9508 12.9169 9.45744 16.4328 8.15296C21.6977 6.22102 34.1907 6.66685 40.0089 6.66685C45.8271 6.66685 58.338 6.23753 63.5851 8.15296C67.0831 9.44092 69.778 11.9343 71.188 15.1872C73.2761 20.0584 72.7942 31.617 72.7942 37C72.7942 42.383 73.2761 53.9582 71.188 58.8128Z" fill="#5E3023"/>
</g>
</svg>
