<svg xmlns="http://www.w3.org/2000/svg" width="52" height="47" fill="none" viewBox="0 0 52 47">
  <path fill="#fff" d="M26.006 11.45c-7.378 0-13.33 5.38-13.33 12.05 0 6.67 5.952 12.05 13.33 12.05s13.329-5.38 13.329-12.05c0-6.67-5.951-12.05-13.33-12.05Zm0 19.884c-4.768 0-8.666-3.513-8.666-7.834 0-4.32 3.886-7.834 8.666-7.834s8.666 3.513 8.666 7.834c0 4.32-3.898 7.834-8.666 7.834Zm16.983-20.377c0 1.563-1.392 2.81-3.109 2.81-1.728 0-3.109-1.258-3.109-2.81s1.392-2.81 3.11-2.81c1.716 0 3.108 1.258 3.108 2.81Zm8.828 2.852c-.197-3.764-1.148-7.1-4.2-9.847C44.58 1.214 40.89.354 36.726.165c-4.292-.22-17.158-.22-21.45 0-4.153.178-7.842 1.038-10.893 3.786C1.332 6.7.392 10.034.182 13.8c-.243 3.88-.243 15.511 0 19.392.198 3.764 1.15 7.1 4.2 9.847 3.051 2.748 6.729 3.608 10.893 3.797 4.292.22 17.158.22 21.45 0 4.164-.178 7.853-1.038 10.893-3.797 3.04-2.747 3.99-6.082 4.2-9.847.243-3.88.243-15.501 0-19.382Zm-5.545 23.545c-.905 2.056-2.656 3.64-4.942 4.468-3.422 1.227-11.542.944-15.324.944s-11.914.272-15.325-.944c-2.273-.818-4.025-2.402-4.942-4.468C4.382 34.26 4.695 26.92 4.695 23.5c0-3.419-.301-10.77 1.044-13.854.905-2.056 2.657-3.64 4.942-4.468 3.423-1.227 11.543-.944 15.325-.944s11.914-.272 15.324.944c2.274.818 4.026 2.402 4.942 4.468C47.63 12.74 47.316 20.08 47.316 23.5c0 3.419.313 10.77-1.044 13.854Z"/>
</svg>
