<svg width="29" height="39" viewBox="0 0 29 39" fill="none" xmlns="http://www.w3.org/2000/svg">
<g id="Group 48">
<g id="&#240;&#159;&#166;&#134; icon &#34;Alternate Map Marker&#34;">
<path id="Vector" d="M13.0098 37.8865C2.0368 21.9789 0 20.3463 0 14.5C0 6.49185 6.49185 0 14.5 0C22.5082 0 29 6.49185 29 14.5C29 20.3463 26.9632 21.9789 15.9902 37.8865C15.2701 38.9268 13.7298 38.9267 13.0098 37.8865ZM14.5 20.5417C17.8367 20.5417 20.5417 17.8367 20.5417 14.5C20.5417 11.1633 17.8367 8.45833 14.5 8.45833C11.1633 8.45833 8.45833 11.1633 8.45833 14.5C8.45833 17.8367 11.1633 20.5417 14.5 20.5417Z" fill="#F3E9DC"/>
</g>
</g>
</svg>
