<svg width="41" height="40" viewBox="0 0 41 40" fill="none" xmlns="http://www.w3.org/2000/svg">
<path id="Vector" d="M20.5 0C9.1754 0 0 8.95161 0 20C0 31.0484 9.1754 40 20.5 40C31.8246 40 41 31.0484 41 20C41 8.95161 31.8246 0 20.5 0ZM20.5 36.129C11.3659 36.129 3.96774 28.9113 3.96774 20C3.96774 11.0887 11.3659 3.87097 20.5 3.87097C29.6341 3.87097 37.0323 11.0887 37.0323 20C37.0323 28.9113 29.6341 36.129 20.5 36.129ZM25.6085 27.7097L18.5905 22.7339C18.3343 22.5484 18.1855 22.2581 18.1855 21.9516V8.70968C18.1855 8.17742 18.6319 7.74194 19.1774 7.74194H21.8226C22.3681 7.74194 22.8145 8.17742 22.8145 8.70968V20.1371L28.3363 24.0564C28.7827 24.371 28.8736 24.9758 28.5512 25.4113L26.9972 27.5C26.6748 27.9274 26.0548 28.0242 25.6085 27.7097Z" fill="#F3E9DC"/>
</svg>
