<svg xmlns="http://www.w3.org/2000/svg" width="48" height="48" fill="none" viewBox="0 0 48 48">
  <path fill="#fff" d="M40.81 6.975C36.322 2.475 30.344 0 23.99 0 10.874 0 .203 10.671.203 23.786c0 4.189 1.092 8.282 3.171 11.893L0 48l12.61-3.31a23.714 23.714 0 0 0 11.369 2.892h.01C37.093 47.582 48 36.911 48 23.796c0-6.353-2.7-12.321-7.19-16.821Zm-16.82 36.6c-3.558 0-7.04-.954-10.072-2.754l-.718-.428-7.479 1.96 1.993-7.296-.471-.75A19.704 19.704 0 0 1 4.22 23.786C4.221 12.889 13.093 4.018 24 4.018a19.594 19.594 0 0 1 13.971 5.796c3.729 3.74 6.022 8.7 6.011 13.982 0 10.908-9.096 19.779-19.993 19.779Zm10.842-14.807c-.59-.3-3.514-1.736-4.06-1.929-.547-.203-.943-.3-1.34.3-.396.6-1.532 1.929-1.886 2.336-.342.396-.696.45-1.285.15-3.493-1.746-5.786-3.118-8.09-7.071-.61-1.05.611-.975 1.747-3.247.193-.396.096-.74-.054-1.04-.15-.3-1.339-3.224-1.832-4.413-.482-1.158-.975-.997-1.34-1.018-.342-.022-.738-.022-1.135-.022-.396 0-1.04.15-1.586.74-.546.6-2.078 2.035-2.078 4.96s2.132 5.754 2.421 6.15c.3.397 4.19 6.397 10.157 8.979 3.772 1.628 5.25 1.768 7.136 1.49 1.147-.172 3.514-1.437 4.007-2.83.493-1.392.493-2.582.343-2.828-.14-.268-.536-.418-1.125-.707Z"/>
</svg>
